<svg xmlns="http://www.w3.org/2000/svg" version="1.1" xmlns:xlink="http://www.w3.org/1999/xlink" xmlns:svgjs="http://svgjs.dev/svgjs" width="500" height="500"><svg width="500" height="500" viewBox="0 0 500 500" fill="none" xmlns="http://www.w3.org/2000/svg">
<path d="M334.163 194.576C347.583 200.083 353.484 189.829 346.043 177.441C335.2 159.389 321.678 136.054 334.062 136.054C353.366 136.054 402.885 162.738 406.243 131.051C409.6 99.364 351.861 66.3262 351.861 66.3262C338.258 57.6708 310.064 52.5535 286.221 51.2963C286.221 51.2963 328.187 86.856 329.865 102.699C331.294 116.183 310.839 115.776 289.711 115.355C286.012 115.281 282.293 115.207 278.667 115.207C254.327 115.207 308.882 184.172 308.882 184.172C317.532 186.568 325.959 191.209 334.163 194.576Z" fill="#4644BE"></path>
<path d="M74.7135 244.112C74.7135 244.143 74.7134 244.081 74.7135 244.112C74.804 279.305 126.751 231.723 126.751 211.937C126.751 192.134 110.592 176.081 90.6602 176.081C89.5685 176.081 88.488 176.129 87.4209 176.223C79.1659 197.654 74.6892 220.631 74.7135 244.112Z" fill="#35377A"></path>
<path d="M93.3519 324.704C109.007 357.226 123.8 373.421 149.586 395.583C156.048 401.137 149.022 408.678 140.992 417.297C133.377 425.471 124.86 434.613 126.085 443.948C128.165 459.791 161.382 446.559 207.498 426.437C243.502 441.977 267.872 441.135 314.93 431.439C337.143 445.634 372.835 454.337 381.236 449.785C383.357 448.636 384.509 446.95 384.801 444.865C385.782 437.872 377.085 426.387 362.771 415.596C355.217 409.902 361.313 397.705 380.397 384.743C384.249 385.37 388.216 385.178 392.116 384.357C414.411 379.667 434.546 354.457 418.83 344.521C402.77 334.367 403.159 329.653 403.604 324.272C403.723 322.833 403.845 321.346 403.659 319.695C403.187 315.531 400.748 310.32 391.308 302.19C391.486 292.329 387.695 288.966 383.328 285.091C382.042 283.95 380.707 282.765 379.408 281.358C377.908 279.731 376.456 277.807 375.187 275.31C369.203 263.534 362.076 275.663 364.969 289.83C365.812 293.957 367.505 298.257 370.325 302.19C362.322 299.989 358.198 299.969 351.86 302.19C349.602 287.922 345.44 284.994 340.455 281.486C338.435 280.065 336.279 278.548 334.061 276.144C323.989 265.228 322.484 274.476 322.484 310.528L320.806 348.887C320.806 362.229 295.127 364.291 275.483 363.896C115 360.666 135.145 136.054 308.882 184.172C308.882 184.172 254.327 115.207 278.667 115.207C282.293 115.207 286.012 115.281 289.711 115.355C310.839 115.776 331.294 116.183 329.865 102.699C328.187 86.856 286.221 51.2963 286.221 51.2963C268.438 50.3587 249.67 51.6278 230.16 55.3663C163.477 68.1435 110.58 116.1 87.4209 176.223C88.488 176.129 89.5685 176.081 90.6602 176.081C110.592 176.081 126.751 192.134 126.751 211.937C126.751 231.723 74.804 279.305 74.7135 244.112C74.7545 270.807 80.6135 298.242 93.3519 324.704Z" fill="#FF6A38"></path>
</svg><style>@media (prefers-color-scheme: light) { :root { filter: none; } }
@media (prefers-color-scheme: dark) { :root { filter: none; } }
</style></svg>